<svg xmlns="http://www.w3.org/2000/svg" width="36.348" height="31.4" viewBox="0 0 36.348 31.4">
    <g id="Group_42077" transform="translate(-94.576)">
        <path id="Path_4874"
            d="M112.7,0a12.4,12.4,0,1,0,12.4,12.4A12.4,12.4,0,0,0,112.7,0m9.6,5.5c-.6.4-1.3.8-2,1.2a11.355,11.355,0,0,0-1.5-2.3,16.965,16.965,0,0,0,1.4-1,6.031,6.031,0,0,1,2.1,2.1m-5.2-4.1A11.236,11.236,0,0,1,119.9,3a7.1,7.1,0,0,1-1.4,1,17.969,17.969,0,0,0-2-1.9,4.349,4.349,0,0,1,.6-.7m1,2.8a18.945,18.945,0,0,1-2.1.9,12.445,12.445,0,0,0-1-2,4.129,4.129,0,0,0,1.1-.7,11.233,11.233,0,0,1,2,1.8m-1.5-3a2.651,2.651,0,0,0-.5.6A13.9,13.9,0,0,0,114,.7a7.512,7.512,0,0,1,2.6.5m-.9.9a4.053,4.053,0,0,1-.9.5c-.4-.6-.8-1.1-1.2-1.7a11.251,11.251,0,0,1,2.1,1.2M112.9,1a8.32,8.32,0,0,1,1.3,1.8,5.067,5.067,0,0,1-1.3.2Zm0,2.5a4.529,4.529,0,0,0,1.6-.3,12.445,12.445,0,0,1,1,2,20.236,20.236,0,0,1-2.6.4ZM112.4,1V3a6.882,6.882,0,0,1-1.3-.2A20.279,20.279,0,0,0,112.4,1m-1.7,1.6a2.622,2.622,0,0,1-.9-.5A21.16,21.16,0,0,1,111.9,1a6.1,6.1,0,0,0-1.2,1.6m.7-2a21.16,21.16,0,0,0-2.1,1.1,2.651,2.651,0,0,1-.5-.6,19.969,19.969,0,0,1,2.6-.5m8.5,21.2a2.615,2.615,0,0,1-1.6-2.6c.1-.5.4-.3.6-.3a4.575,4.575,0,0,0,3.6-1.8,5.368,5.368,0,0,0-.4-7.5c-2.6-2.5-5.4-2.1-7.2.2a2.792,2.792,0,0,1-2,.8c-1.2,0-.4.9-.4,1.1a.319.319,0,0,1-.3.3c-.4-.1-.2.5-.2.6s-.2.3-.2.3c-.5,0-.4.4-.3.6a.4.4,0,0,1-.2.4c-.2.1-.3.5-.3.8,0,.5.5.9,1.3,1.5a1.9,1.9,0,0,1,.9,1.6,7.719,7.719,0,0,0,.2,1.5c.2.5.2,1.5-.9,1.5a16.211,16.211,0,0,0-4,1.2,4.64,4.64,0,0,1-2.6.2,10.591,10.591,0,0,1-1.2-1,1.674,1.674,0,0,1,.4-1.5,1.823,1.823,0,0,0,1.5.4,18.664,18.664,0,0,0,2.5-.4c.3-.1.4-.1.5,0a1.429,1.429,0,0,0,2.1-1c.4-1.4-.5-1-.7-.9-.1.1-.3,0-.2-.1.2-.3-.1-.3-.2-.3a1.865,1.865,0,0,0-1,.5.756.756,0,0,1-.4.1c-.5-.3-2,.1-2.5-.7a40.675,40.675,0,0,0-.6-4.1.507.507,0,0,1,.1-.5c.4-.6,1.4,0,2,0a1.06,1.06,0,0,0,1-.5c.2-.2.3-.1.4-.2s0-.2,0-.3.1,0,.2-.1,0-.3,0-.4c.2-.3.6-.1.4-.7a1.113,1.113,0,0,1,.3-1c.3-.4,1.6-2.2-.6-4.1-2.1-1.8-4.3-1.6-5.7-.1s-.7,3.7-.6,4.3a1.213,1.213,0,0,1-.8,1.3,12.99,12.99,0,0,0-1.9,1.3,11.638,11.638,0,0,1,7.4-10.7c.2.2.4.5.6.7-.5.4-1.6,1.3-1.6,1.3a.774.774,0,0,1,.3.1,1.007,1.007,0,0,1,.3.1,13.628,13.628,0,0,1,1.4-1.1,4.129,4.129,0,0,0,1.1.7c-.2.4-.8,1.4-.8,1.4a.349.349,0,0,0,.2.1.31.31,0,0,0,.2.1s.6-1.1.8-1.5a4.013,4.013,0,0,0,1.5.3v2a5.7,5.7,0,0,1-1.3-.1h-.2l.1.2c.1.1.1.2.2.3h1.2V9.8h.5V8.9a13.611,13.611,0,0,0,2.1-.2h0l.7-.6h-.4a18.32,18.32,0,0,1-2.1.2h-.3V6a9.034,9.034,0,0,0,2.8-.4l.7,2.1.5-.2-.7-2.1a14.461,14.461,0,0,0,2.2-.9,11.355,11.355,0,0,1,1.5,2.3,9.417,9.417,0,0,1-1,.4c.5.1.9.2.9.2a1.007,1.007,0,0,1,.3-.1,1.007,1.007,0,0,0,.1.3l.7.3-.1-.2a3.287,3.287,0,0,0-.3-.6,11.252,11.252,0,0,0,2.1-1.2,11.5,11.5,0,0,1,1.9,6.5,11.294,11.294,0,0,1-4.5,9.4"
            fill="#009edb" />
        <path id="Path_4875"
            d="M99.2,3.3l-.2.2c-.7.6-2.4,2.3-2.1,4.2v.1l.1.4.2-.2a7.6,7.6,0,0,0,2.1-4.3l.1-.5Z"
            fill="#009edb" />
        <path id="Path_4876"
            d="M95.8,6.5l-.1.2a10.059,10.059,0,0,0-.4,1.8,5.773,5.773,0,0,0,.9,4.3l.1.2.1.2.2-.8A15.1,15.1,0,0,0,96,6.8l-.2-.4Z"
            fill="#009edb" />
        <path id="Path_4877"
            d="M94.6,11.5v.2c-.1,1.2,0,4.3,2.5,6l.3.2v-.4A14.745,14.745,0,0,0,95,11.6l-.3-.4Z"
            fill="#009edb" />
        <path id="Path_4878"
            d="M95,17v.2a7.952,7.952,0,0,0,4.6,5.5l.4.1-.1-.4A16.406,16.406,0,0,0,95.3,17l-.3-.2Z"
            fill="#009edb" />
        <path id="Path_4879"
            d="M100.3,6l-.3.1c-1.9,1.2-2.8,2.6-2.8,4.4v.4l.3-.2a11.56,11.56,0,0,0,2.7-4.3l.1-.5Z"
            fill="#009edb" />
        <path id="Path_4880"
            d="M99.1,9.8,99,10a6.175,6.175,0,0,0-2,4.3,3.553,3.553,0,0,0,.2,1l.1.3.2-.3a11.043,11.043,0,0,0,1.7-5.2V9.7Z"
            fill="#009edb" />
        <path id="Path_4881"
            d="M99.2,13.5l-.1.2a6.452,6.452,0,0,0-1.2,3.6,4.577,4.577,0,0,0,.8,2.4l.2.3.1-.3a15.683,15.683,0,0,0,.6-4.5,4.636,4.636,0,0,0-.2-1.4l-.1-.4Z"
            fill="#009edb" />
        <path id="Path_4882"
            d="M100.1,17.4l-.1.2a6.083,6.083,0,0,0-.3,2.3,4.406,4.406,0,0,0,2.2,3.8l.2.1.1-.3v-.3a14.119,14.119,0,0,0-1.8-5.7l-.2-.3Z"
            fill="#009edb" />
        <path id="Path_4883"
            d="M97.4,22.6l.1.2c1,1.7,2.8,4,6.1,3.4h.3l-.2-.2c-.6-.9-4.6-3.2-6-3.4l-.4-.1Z"
            fill="#009edb" />
        <path id="Path_4884"
            d="M102.3,27h0l-.5.1.5.2a10.116,10.116,0,0,0,6.3.6,3.045,3.045,0,0,0,1.3-.9c2.7.3,5.2,2.5,6.7,4.3l.1.1h.1a2.181,2.181,0,0,0,.5-.4l.1-.1-.1-.1a14.022,14.022,0,0,0-4-3.3,16.593,16.593,0,0,0-11-.5"
            fill="#009edb" />
        <path id="Path_4885"
            d="M102.4,21.4v.2c.3,2,1.1,4.6,4.5,4.3h.2l-.1-.2c-.2-.9-3.3-3.5-4.4-4.2l-.3-.2Z"
            fill="#009edb" />
        <path id="Path_4886"
            d="M126,3.1l.1.5a7.6,7.6,0,0,0,2.1,4.3l.2.2.1-.4V7.6c.3-1.9-1.4-3.6-2.1-4.2l-.2-.2Z"
            fill="#009edb" />
        <path id="Path_4887"
            d="M129.5,6.3l-.2.4a17.526,17.526,0,0,0-.6,5.6l.2.8.1-.1.1-.2a5.285,5.285,0,0,0,.9-4.3,8.242,8.242,0,0,0-.4-1.8l-.1-.2Z"
            fill="#009edb" />
        <path id="Path_4888"
            d="M130.8,11.3l-.3.4a15.34,15.34,0,0,0-2.4,5.9V18l.3-.2c2.5-1.6,2.6-4.7,2.5-6v-.2Z"
            fill="#009edb" />
        <path id="Path_4889"
            d="M130.4,16.8l-.4.2a16.406,16.406,0,0,0-4.6,5.4l-.1.4.4-.1c2.6-.8,4.3-3.7,4.6-5.5V17Z"
            fill="#009edb" />
        <path id="Path_4890"
            d="M125.1,5.8l.1.5a11.175,11.175,0,0,0,2.7,4.4l.3.2v-.4c.1-1.8-.8-3.2-2.7-4.4l-.2-.1Z"
            fill="#009edb" />
        <path id="Path_4891"
            d="M126.2,9.7v.4a11.847,11.847,0,0,0,1.7,5.2l.2.3.1-.3a4.4,4.4,0,0,0,.2-1,6.175,6.175,0,0,0-2-4.3l-.1-.1Z"
            fill="#009edb" />
        <path id="Path_4892"
            d="M126.1,13.3l-.1.4a4.636,4.636,0,0,0-.2,1.4,12.787,12.787,0,0,0,.6,4.5l.1.3.2-.3a4.069,4.069,0,0,0,.8-2.4,6.706,6.706,0,0,0-1.2-3.6l-.1-.2Z"
            fill="#009edb" />
        <path id="Path_4893"
            d="M125.2,17.2l-.2.3a14.119,14.119,0,0,0-1.8,5.7v.3l.1.3.2-.1a4.631,4.631,0,0,0,2.2-3.8,9.692,9.692,0,0,0-.3-2.3l-.1-.2Z"
            fill="#009edb" />
        <path id="Path_4894"
            d="M128.1,22.4l-.4.1c-1.4.2-5.4,2.5-6,3.4l-.2.2h.3c3.3.6,5.1-1.7,6.1-3.4l.1-.2Z"
            fill="#009edb" />
        <path id="Path_4895"
            d="M112.2,27.5a12.313,12.313,0,0,0-4,3.3l-.1.1.1.1c.1.1.4.3.5.4h.1l.1-.1c1.5-1.8,4-4.1,6.7-4.3a3.805,3.805,0,0,0,1.3.9,10.166,10.166,0,0,0,6.3-.6l.5-.2-.5-.1c-5.1-1.3-8.9-.5-11,.5"
            fill="#009edb" />
        <path id="Path_4896"
            d="M123,21.2l-.3.2c-1.1.7-4.1,3.3-4.4,4.2l-.1.2h.2c3.3.3,4.1-2.3,4.5-4.3v-.2Z"
            fill="#009edb" />
    </g>
</svg>
