<svg xmlns="http://www.w3.org/2000/svg" width="91.3" height="28.3" viewBox="0 0 91.3 28.3">
    <g id="Group_42077" transform="translate(0 -0.3)">
        <path id="Path_4897" d="M38.6,1.2h4.2V5H38.6ZM39,9.4h3.5V28H39Z" fill="#009edb" />
        <path id="Path_4898"
            d="M12.5,9.4H16V28H12.6V25.3h-.1a7.149,7.149,0,0,1-6.4,3.3c-3.9,0-6.1-3-6.1-6.7V9.4H3.5v11c0,3.2.7,5.6,4.1,5.6a4.274,4.274,0,0,0,4.1-2.7,12.639,12.639,0,0,0,.7-4.4V9.4Z"
            fill="#009edb" />
        <path id="Path_4899"
            d="M23,12.1h0a6.712,6.712,0,0,1,5.7-3.3c1.3,0,7,.3,7,6.3V27.9H32.2V16.2c0-3.1-1.3-4.7-4.3-4.7a4.851,4.851,0,0,0-3.4,1.4c-.5.5-1.5,1.3-1.5,5V28H19.5V9.4H23Z"
            fill="#009edb" />
        <path id="Path_4900"
            d="M57.2,15.3c-.2-2.3-1.3-3.9-3.8-3.9-3.3,0-4.6,2.9-4.6,7.2s1.3,7.2,4.6,7.2c2.3,0,3.7-1.5,3.9-4.2h3.5c-.3,4.2-3.4,6.7-7.5,6.7-5.9,0-8.3-4.2-8.3-9.6s2.7-9.9,8.6-9.9a6.6,6.6,0,0,1,7,6.5H57.2Z"
            fill="#009edb" />
        <path id="Path_4901"
            d="M66,19.3c-.3,3.2,1.1,6.6,4.6,6.6,2.7,0,4.1-1.1,4.5-3.8h3.7c-.6,4.2-3.8,6.3-8.2,6.3-5.9,0-8.3-4.2-8.3-9.6S65,8.9,70.9,8.9c5.5.1,8.1,3.6,8.1,8.7v1.7H66Zm9.4-2.4c.1-3.1-1.3-5.5-4.7-5.5-2.9,0-4.6,2.5-4.6,5.5Z"
            fill="#009edb" />
        <path id="Path_4902"
            d="M83,27.8v-16H79.8V9.4H83v-4c.1-4,3.2-5.1,5.8-5.1a10.855,10.855,0,0,1,2.5.4V3.6c-.6,0-1.2-.1-1.8-.1-2,0-3.1.5-3,2.5V9.4h4.3v2.4H86.5v16Z"
            fill="#009edb" />
    </g>
</svg>
